<svg version="1.1" viewBox="0.0 0.0 600.0 371.0" fill="none" stroke="none" stroke-linecap="square" stroke-miterlimit="10" width="600" height="371" xmlns:xlink="http://www.w3.org/1999/xlink" xmlns="http://www.w3.org/2000/svg"><path fill="#ffffff" fill-opacity="0.0" d="M0 0L600.0 0L600.0 371.0L0 371.0L0 0Z" fill-rule="nonzero"/><path stroke="#333333" stroke-width="1.0" stroke-linecap="butt" d="M92.5 300.5L581.5 300.5" fill-rule="nonzero"/><path stroke="#cccccc" stroke-width="1.0" stroke-linecap="butt" d="M92.5 231.5L581.5 231.5" fill-rule="nonzero"/><path stroke="#cccccc" stroke-width="1.0" stroke-linecap="butt" d="M92.5 163.5L581.5 163.5" fill-rule="nonzero"/><path stroke="#cccccc" stroke-width="1.0" stroke-linecap="butt" d="M92.5 94.5L581.5 94.5" fill-rule="nonzero"/><path stroke="#cccccc" stroke-width="1.0" stroke-linecap="butt" d="M92.5 25.5L581.5 25.5" fill-rule="nonzero"/><path stroke="#000000" stroke-width="1.0" stroke-linecap="butt" stroke-opacity="0.0" d="M92.5 277.5L581.5 277.5" fill-rule="nonzero"/><path stroke="#000000" stroke-width="1.0" stroke-linecap="butt" stroke-opacity="0.0" d="M92.5 254.5L581.5 254.5" fill-rule="nonzero"/><path stroke="#000000" stroke-width="1.0" stroke-linecap="butt" stroke-opacity="0.0" d="M92.5 208.5L581.5 208.5" fill-rule="nonzero"/><path stroke="#000000" stroke-width="1.0" stroke-linecap="butt" stroke-opacity="0.0" d="M92.5 185.5L581.5 185.5" fill-rule="nonzero"/><path stroke="#000000" stroke-width="1.0" stroke-linecap="butt" stroke-opacity="0.0" d="M92.5 140.5L581.5 140.5" fill-rule="nonzero"/><path stroke="#000000" stroke-width="1.0" stroke-linecap="butt" stroke-opacity="0.0" d="M92.5 117.5L581.5 117.5" fill-rule="nonzero"/><path stroke="#000000" stroke-width="1.0" stroke-linecap="butt" stroke-opacity="0.0" d="M92.5 71.5L581.5 71.5" fill-rule="nonzero"/><path stroke="#000000" stroke-width="1.0" stroke-linecap="butt" stroke-opacity="0.0" d="M92.5 48.5L581.5 48.5" fill-rule="nonzero"/><clipPath id="id_0"><path d="M92.55 25.55L581.45 25.55L581.45 300.45L92.55 300.45L92.55 25.55Z" clip-rule="nonzero"/></clipPath><path stroke="#ffdb29" stroke-width="4.0" stroke-linecap="butt" clip-path="url(#id_0)" d="M119.71111 300.45L174.03334 231.725L228.35556 163.0L282.67776 94.275L337.0 25.55L391.32224 25.55L445.64444 25.55L499.96667 25.55L554.2889 25.55" fill-rule="nonzero"/><path fill="#000000" fill-opacity="0.0" clip-path="url(#id_0)" d="M122.71111 300.45C122.71111 302.10684 121.367966 303.45 119.71111 303.45C118.05426 303.45 116.71111 302.10684 116.71111 300.45C116.71111 298.79315 118.05426 297.45 119.71111 297.45C121.367966 297.45 122.71111 298.79315 122.71111 300.45Z" fill-rule="nonzero"/><path fill="#000000" fill-opacity="0.0" clip-path="url(#id_0)" d="M177.03334 231.725C177.03334 233.38185 175.69019 234.725 174.03334 234.725C172.37648 234.725 171.03334 233.38185 171.03334 231.725C171.03334 230.06815 172.37648 228.725 174.03334 228.725C175.69019 228.725 177.03334 230.06815 177.03334 231.725Z" fill-rule="nonzero"/><path fill="#000000" fill-opacity="0.0" clip-path="url(#id_0)" d="M231.35556 163.0C231.35556 164.65686 230.0124 166.0 228.35556 166.0C226.6987 166.0 225.35556 164.65686 225.35556 163.0C225.35556 161.34314 226.6987 160.0 228.35556 160.0C230.0124 160.0 231.35556 161.34314 231.35556 163.0Z" fill-rule="nonzero"/><path fill="#000000" fill-opacity="0.0" clip-path="url(#id_0)" d="M285.67776 94.275C285.67776 95.931854 284.33463 97.275 282.67776 97.275C281.02094 97.275 279.67776 95.931854 279.67776 94.275C279.67776 92.61815 281.02094 91.275 282.67776 91.275C284.33463 91.275 285.67776 92.61815 285.67776 94.275Z" fill-rule="nonzero"/><path fill="#000000" fill-opacity="0.0" clip-path="url(#id_0)" d="M340.0 25.55C340.0 27.206854 338.65686 28.55 337.0 28.55C335.34314 28.55 334.0 27.206854 334.0 25.55C334.0 23.893147 335.34314 22.55 337.0 22.55C338.65686 22.55 340.0 23.893147 340.0 25.55Z" fill-rule="nonzero"/><path fill="#000000" fill-opacity="0.0" clip-path="url(#id_0)" d="M394.32224 25.55C394.32224 27.206854 392.97906 28.55 391.32224 28.55C389.66537 28.55 388.32224 27.206854 388.32224 25.55C388.32224 23.893147 389.66537 22.55 391.32224 22.55C392.97906 22.55 394.32224 23.893147 394.32224 25.55Z" fill-rule="nonzero"/><path fill="#000000" fill-opacity="0.0" clip-path="url(#id_0)" d="M448.64444 25.55C448.64444 27.206854 447.3013 28.55 445.64444 28.55C443.98758 28.55 442.64444 27.206854 442.64444 25.55C442.64444 23.893147 443.98758 22.55 445.64444 22.55C447.3013 22.55 448.64444 23.893147 448.64444 25.55Z" fill-rule="nonzero"/><path fill="#000000" fill-opacity="0.0" clip-path="url(#id_0)" d="M502.96667 25.55C502.96667 27.206854 501.62354 28.55 499.96667 28.55C498.3098 28.55 496.96667 27.206854 496.96667 25.55C496.96667 23.893147 498.3098 22.55 499.96667 22.55C501.62354 22.55 502.96667 23.893147 502.96667 25.55Z" fill-rule="nonzero"/><path fill="#000000" fill-opacity="0.0" clip-path="url(#id_0)" d="M557.2889 25.55C557.2889 27.206854 555.94574 28.55 554.2889 28.55C552.632 28.55 551.2889 27.206854 551.2889 25.55C551.2889 23.893147 552.632 22.55 554.2889 22.55C555.94574 22.55 557.2889 23.893147 557.2889 25.55Z" fill-rule="nonzero"/><path fill="#ffffff" d="M248.89062 340.85626L251.54688 340.85626L251.54688 343.8719L254.45312 343.8719L254.45312 340.85626L257.10938 340.85626L257.10938 349.45L254.45312 349.45L254.45312 345.98126L251.54688 345.98126L251.54688 349.45L248.89062 349.45L248.89062 340.85626ZM258.42188 346.35626Q258.42188 344.9344 259.375 344.0125Q260.34375 343.09064 261.98438 343.09064Q263.85938 343.09064 264.8125 344.16876Q265.57812 345.04376 265.57812 346.325Q265.57812 347.7625 264.625 348.6844Q263.67188 349.59064 261.98438 349.59064Q260.48438 349.59064 259.5625 348.825Q258.42188 347.8875 258.42188 346.35626ZM260.8125 346.35626Q260.8125 347.1844 261.15625 347.59064Q261.5 347.98126 262.0 347.98126Q262.51562 347.98126 262.84375 347.59064Q263.1875 347.2 263.1875 346.325Q263.1875 345.5125 262.84375 345.1219Q262.51562 344.73126 262.01562 344.73126Q261.5 344.73126 261.15625 345.1375Q260.8125 345.52814 260.8125 346.35626ZM273.28125 349.45L271.04688 349.45L271.04688 348.4344Q270.54688 349.0594 270.04688 349.325Q269.54688 349.59064 268.79688 349.59064Q267.8125 349.59064 267.25 349.0125Q266.70312 348.41876 266.70312 347.1844L266.70312 343.23126L269.09375 343.23126L269.09375 346.65314Q269.09375 347.23126 269.3125 347.48126Q269.53125 347.73126 269.92188 347.73126Q270.34375 347.73126 270.60938 347.40314Q270.89062 347.075 270.89062 346.21564L270.89062 343.23126L273.28125 343.23126L273.28125 349.45ZM274.75 343.23126L276.98438 343.23126L276.98438 344.2469Q277.29688 343.59064 277.64062 343.34064Q277.98438 343.09064 278.48438 343.09064Q279.01562 343.09064 279.64062 343.41876L278.90625 345.10626Q278.48438 344.9344 278.23438 344.9344Q277.76562 344.9344 277.51562 345.325Q277.14062 345.8719 277.14062 347.35626L277.14062 349.45L274.75 349.45L274.75 343.23126ZM279.29688 347.73126L281.67188 347.4969Q281.8125 347.91876 282.07812 348.10626Q282.34375 348.29376 282.78125 348.29376Q283.26562 348.29376 283.53125 348.09064Q283.73438 347.9344 283.73438 347.7Q283.73438 347.45 283.45312 347.3094Q283.26562 347.2 282.4375 347.0594Q281.1875 346.84064 280.70312 346.65314Q280.21875 346.46564 279.89062 346.02814Q279.5625 345.59064 279.5625 345.02814Q279.5625 344.41876 279.92188 343.98126Q280.28125 343.52814 280.90625 343.3094Q281.53125 343.09064 282.59375 343.09064Q283.70312 343.09064 284.23438 343.2625Q284.76562 343.41876 285.10938 343.77814Q285.46875 344.1375 285.70312 344.7469L283.4375 344.96564Q283.35938 344.66876 283.15625 344.52814Q282.875 344.34064 282.46875 344.34064Q282.0625 344.34064 281.875 344.4969Q281.70312 344.6375 281.70312 344.84064Q281.70312 345.0594 281.9375 345.1844Q282.17188 345.29376 282.95312 345.3875Q284.14062 345.52814 284.71875 345.77814Q285.29688 346.0125 285.60938 346.46564Q285.92188 346.90314 285.92188 347.4344Q285.92188 347.96564 285.59375 348.48126Q285.26562 348.9969 284.5625 349.29376Q283.85938 349.59064 282.65625 349.59064Q280.95312 349.59064 280.21875 349.10626Q279.5 348.6219 279.29688 347.73126ZM290.42188 346.60626L292.9375 346.45Q293.03125 347.0594 293.28125 347.3875Q293.6875 347.90314 294.45312 347.90314Q295.01562 347.90314 295.3125 347.6375Q295.625 347.3719 295.625 347.02814Q295.625 346.6844 295.34375 346.41876Q295.04688 346.16876 293.98438 345.9344Q292.23438 345.52814 291.48438 344.8875Q290.73438 344.23126 290.73438 343.23126Q290.73438 342.5594 291.10938 341.98126Q291.5 341.3875 292.26562 341.0594Q293.04688 340.71564 294.39062 340.71564Q296.03125 340.71564 296.89062 341.325Q297.76562 341.9344 297.92188 343.27814L295.42188 343.41876Q295.32812 342.84064 295.0 342.575Q294.6875 342.3094 294.125 342.3094Q293.65625 342.3094 293.42188 342.5125Q293.1875 342.7 293.1875 342.98126Q293.1875 343.1844 293.39062 343.35626Q293.57812 343.52814 294.28125 343.66876Q296.01562 344.04376 296.76562 344.4344Q297.53125 344.8094 297.85938 345.3875Q298.20312 345.95 298.20312 346.65314Q298.20312 347.48126 297.75 348.1844Q297.29688 348.8719 296.46875 349.23126Q295.65625 349.59064 294.40625 349.59064Q292.21875 349.59064 291.375 348.7469Q290.53125 347.90314 290.42188 346.60626ZM299.8125 340.85626L302.1875 340.85626L302.1875 342.48126L299.8125 342.48126L299.8125 340.85626ZM299.8125 343.23126L302.1875 343.23126L302.1875 349.45L299.8125 349.45L299.8125 343.23126ZM303.71875 343.23126L305.9375 343.23126L305.9375 344.2469Q306.4375 343.6219 306.9375 343.35626Q307.45312 343.09064 308.1875 343.09064Q309.1875 343.09064 309.73438 343.6844Q310.29688 344.2625 310.29688 345.4969L310.29688 349.45L307.90625 349.45L307.90625 346.02814Q307.90625 345.4344 307.6875 345.2Q307.46875 344.95 307.07812 344.95Q306.64062 344.95 306.375 345.27814Q306.10938 345.60626 306.10938 346.46564L306.10938 349.45L303.71875 349.45L303.71875 343.23126ZM316.35938 347.0125L318.625 347.27814Q318.4375 347.98126 318.01562 348.5125Q317.59375 349.02814 316.92188 349.3094Q316.25 349.59064 315.23438 349.59064Q314.23438 349.59064 313.57812 349.41876Q312.92188 349.23126 312.4375 348.825Q311.96875 348.40314 311.70312 347.85626Q311.4375 347.29376 311.4375 346.3719Q311.4375 345.40314 311.76562 344.7625Q312.0 344.29376 312.40625 343.9344Q312.82812 343.5594 313.28125 343.3719Q313.96875 343.09064 315.0625 343.09064Q316.57812 343.09064 317.375 343.6375Q318.1875 344.16876 318.5 345.23126L316.26562 345.52814Q316.15625 345.1219 315.875 344.91876Q315.59375 344.71564 315.125 344.71564Q314.54688 344.71564 314.17188 345.15314Q313.8125 345.575 313.8125 346.4344Q313.8125 347.2 314.17188 347.60626Q314.53125 347.9969 315.09375 347.9969Q315.5625 347.9969 315.875 347.7625Q316.20312 347.5125 316.35938 347.0125ZM326.625 346.9344L321.84375 346.9344Q321.90625 347.4969 322.15625 347.77814Q322.5 348.1844 323.0625 348.1844Q323.40625 348.1844 323.73438 348.0125Q323.92188 347.90314 324.14062 347.6219L326.5 347.84064Q325.95312 348.77814 325.1875 349.1844Q324.4375 349.59064 323.01562 349.59064Q321.76562 349.59064 321.0625 349.2469Q320.35938 348.8875 319.89062 348.1375Q319.42188 347.3719 319.42188 346.35626Q319.42188 344.8875 320.35938 343.9969Q321.29688 343.09064 322.9375 343.09064Q324.28125 343.09064 325.04688 343.4969Q325.82812 343.8875 326.21875 344.66876Q326.625 345.4344 326.625 346.65314L326.625 346.9344ZM324.20312 345.79376Q324.14062 345.09064 323.82812 344.79376Q323.53125 344.4969 323.03125 344.4969Q322.46875 344.4969 322.125 344.95Q321.90625 345.23126 321.85938 345.79376L324.20312 345.79376ZM331.89062 340.85626L334.54688 340.85626L334.54688 344.10626L337.32812 340.85626L340.85938 340.85626L337.73438 344.10626L341.0 349.45L337.73438 349.45L335.92188 345.91876L334.54688 347.35626L334.54688 349.45L331.89062 349.45L331.89062 340.85626ZM348.625 346.9344L343.84375 346.9344Q343.90625 347.4969 344.15625 347.77814Q344.5 348.1844 345.0625 348.1844Q345.40625 348.1844 345.73438 348.0125Q345.92188 347.90314 346.14062 347.6219L348.5 347.84064Q347.95312 348.77814 347.1875 349.1844Q346.4375 349.59064 345.01562 349.59064Q343.76562 349.59064 343.0625 349.2469Q342.35938 348.8875 341.89062 348.1375Q341.42188 347.3719 341.42188 346.35626Q341.42188 344.8875 342.35938 343.9969Q343.29688 343.09064 344.9375 343.09064Q346.28125 343.09064 347.04688 343.4969Q347.82812 343.8875 348.21875 344.66876Q348.625 345.4344 348.625 346.65314L348.625 346.9344ZM346.20312 345.79376Q346.14062 345.09064 345.82812 344.79376Q345.53125 344.4969 345.03125 344.4969Q344.46875 344.4969 344.125 344.95Q343.90625 345.23126 343.85938 345.79376L346.20312 345.79376ZM349.03125 343.23126L351.54688 343.23126L352.82812 347.3719L354.01562 343.23126L356.375 343.23126L353.90625 349.8719Q353.48438 351.0125 353.04688 351.41876Q352.42188 351.98126 351.15625 351.98126Q350.64062 351.98126 349.5625 351.84064L349.375 350.16876Q349.89062 350.34064 350.51562 350.34064Q350.9375 350.34064 351.20312 350.1375Q351.46875 349.95 351.64062 349.45L349.03125 343.23126ZM366.17188 348.02814L363.14062 348.02814L362.71875 349.45L360.01562 349.45L363.23438 340.85626L366.14062 340.85626L369.35938 349.45L366.59375 349.45L366.17188 348.02814ZM365.60938 346.16876L364.65625 343.09064L363.71875 346.16876L365.60938 346.16876ZM374.35938 347.0125L376.625 347.27814Q376.4375 347.98126 376.01562 348.5125Q375.59375 349.02814 374.92188 349.3094Q374.25 349.59064 373.23438 349.59064Q372.23438 349.59064 371.57812 349.41876Q370.92188 349.23126 370.4375 348.825Q369.96875 348.40314 369.70312 347.85626Q369.4375 347.29376 369.4375 346.3719Q369.4375 345.40314 369.76562 344.7625Q370.0 344.29376 370.40625 343.9344Q370.82812 343.5594 371.28125 343.3719Q371.96875 343.09064 373.0625 343.09064Q374.57812 343.09064 375.375 343.6375Q376.1875 344.16876 376.5 345.23126L374.26562 345.52814Q374.15625 345.1219 373.875 344.91876Q373.59375 344.71564 373.125 344.71564Q372.54688 344.71564 372.17188 345.15314Q371.8125 345.575 371.8125 346.4344Q371.8125 347.2 372.17188 347.60626Q372.53125 347.9969 373.09375 347.9969Q373.5625 347.9969 373.875 347.7625Q374.20312 347.5125 374.35938 347.0125ZM380.59375 340.85626L380.59375 343.23126L381.90625 343.23126L381.90625 344.96564L380.59375 344.96564L380.59375 347.16876Q380.59375 347.575 380.67188 347.7Q380.79688 347.90314 381.07812 347.90314Q381.34375 347.90314 381.82812 347.7469L382.0 349.40314Q381.10938 349.59064 380.34375 349.59064Q379.45312 349.59064 379.03125 349.3719Q378.60938 349.1375 378.40625 348.66876Q378.20312 348.2 378.20312 347.15314L378.20312 344.96564L377.32812 344.96564L377.32812 343.23126L378.20312 343.23126L378.20312 342.09064L380.59375 340.85626ZM382.8125 340.85626L385.1875 340.85626L385.1875 342.48126L382.8125 342.48126L382.8125 340.85626ZM382.8125 343.23126L385.1875 343.23126L385.1875 349.45L382.8125 349.45L382.8125 343.23126ZM386.01562 343.23126L388.5 343.23126L389.70312 347.16876L390.95312 343.23126L393.35938 343.23126L390.71875 349.45L388.60938 349.45L386.01562 343.23126ZM395.89062 345.2469L393.60938 344.9969Q393.75 344.40314 393.98438 344.0594Q394.23438 343.71564 394.6875 343.46564Q395.01562 343.27814 395.59375 343.1844Q396.17188 343.09064 396.82812 343.09064Q397.90625 343.09064 398.54688 343.21564Q399.20312 343.325 399.64062 343.7Q399.9375 343.96564 400.10938 344.45Q400.29688 344.9344 400.29688 345.3719L400.29688 348.1219Q400.29688 348.5594 400.34375 348.8094Q400.40625 349.0594 400.59375 349.45L398.35938 349.45Q398.21875 349.21564 398.17188 349.09064Q398.14062 348.95 398.09375 348.6844Q397.625 349.1375 397.17188 349.325Q396.53125 349.59064 395.70312 349.59064Q394.57812 349.59064 394.0 349.075Q393.42188 348.5594 393.42188 347.8094Q393.42188 347.09064 393.84375 346.6375Q394.26562 346.1844 395.375 345.95Q396.71875 345.6844 397.10938 345.575Q397.51562 345.46564 397.96875 345.29376Q397.96875 344.85626 397.78125 344.6844Q397.59375 344.4969 397.14062 344.4969Q396.5625 344.4969 396.26562 344.6844Q396.03125 344.84064 395.89062 345.2469ZM397.96875 346.4969Q397.46875 346.66876 396.9375 346.8094Q396.21875 346.9969 396.01562 347.1844Q395.8125 347.3875 395.8125 347.6219Q395.8125 347.90314 396.01562 348.09064Q396.21875 348.2625 396.59375 348.2625Q396.98438 348.2625 397.32812 348.075Q397.67188 347.8719 397.8125 347.60626Q397.96875 347.325 397.96875 346.8719L397.96875 346.4969ZM404.59375 340.85626L404.59375 343.23126L405.90625 343.23126L405.90625 344.96564L404.59375 344.96564L404.59375 347.16876Q404.59375 347.575 404.67188 347.7Q404.79688 347.90314 405.07812 347.90314Q405.34375 347.90314 405.82812 347.7469L406.0 349.40314Q405.10938 349.59064 404.34375 349.59064Q403.45312 349.59064 403.03125 349.3719Q402.60938 349.1375 402.40625 348.66876Q402.20312 348.2 402.20312 347.15314L402.20312 344.96564L401.32812 344.96564L401.32812 343.23126L402.20312 343.23126L402.20312 342.09064L404.59375 340.85626ZM406.8125 340.85626L409.1875 340.85626L409.1875 342.48126L406.8125 342.48126L406.8125 340.85626ZM406.8125 343.23126L409.1875 343.23126L409.1875 349.45L406.8125 349.45L406.8125 343.23126ZM410.42188 346.35626Q410.42188 344.9344 411.375 344.0125Q412.34375 343.09064 413.98438 343.09064Q415.85938 343.09064 416.8125 344.16876Q417.57812 345.04376 417.57812 346.325Q417.57812 347.7625 416.625 348.6844Q415.67188 349.59064 413.98438 349.59064Q412.48438 349.59064 411.5625 348.825Q410.42188 347.8875 410.42188 346.35626ZM412.8125 346.35626Q412.8125 347.1844 413.15625 347.59064Q413.5 347.98126 414.0 347.98126Q414.51562 347.98126 414.84375 347.59064Q415.1875 347.2 415.1875 346.325Q415.1875 345.5125 414.84375 345.1219Q414.51562 344.73126 414.01562 344.73126Q413.5 344.73126 413.15625 345.1375Q412.8125 345.52814 412.8125 346.35626ZM418.71875 343.23126L420.9375 343.23126L420.9375 344.2469Q421.4375 343.6219 421.9375 343.35626Q422.45312 343.09064 423.1875 343.09064Q424.1875 343.09064 424.73438 343.6844Q425.29688 344.2625 425.29688 345.4969L425.29688 349.45L422.90625 349.45L422.90625 346.02814Q422.90625 345.4344 422.6875 345.2Q422.46875 344.95 422.07812 344.95Q421.64062 344.95 421.375 345.27814Q421.10938 345.60626 421.10938 346.46564L421.10938 349.45L418.71875 349.45L418.71875 343.23126Z" fill-rule="nonzero"/><path fill="#ffffff" d="M20.815638 243.625L20.815638 242.39062L29.987513 247.34375L29.987513 248.57812L20.815638 243.625ZM23.065638 250.92188Q22.471888 250.92188 21.940638 250.65625Q21.393763 250.39062 21.112513 249.85938Q20.815638 249.32812 20.815638 248.59375Q20.815638 247.51562 21.440638 246.89062Q22.050013 246.26562 23.065638 246.26562Q24.096888 246.26562 24.721888 246.89062Q25.331263 247.51562 25.331263 248.59375Q25.331263 249.32812 25.050013 249.85938Q24.753138 250.39062 24.221888 250.65625Q23.675013 250.92188 23.065638 250.92188ZM23.081263 249.26562Q23.800013 249.26562 24.128138 249.03125Q24.346888 248.89062 24.346888 248.59375Q24.346888 248.29688 24.128138 248.15625Q23.800013 247.92188 23.081263 247.92188Q22.362513 247.92188 22.018763 248.15625Q21.815638 248.29688 21.815638 248.59375Q21.815638 248.89062 22.018763 249.03125Q22.346888 249.26562 23.081263 249.26562ZM27.721888 244.71875Q27.112513 244.71875 26.581263 244.46875Q26.034388 244.20312 25.753138 243.67188Q25.456263 243.125 25.456263 242.40625Q25.456263 241.32812 26.081263 240.70312Q26.690638 240.07812 27.721888 240.07812Q28.737513 240.07812 29.362513 240.70312Q29.971888 241.32812 29.971888 242.40625Q29.971888 243.125 29.675013 243.67188Q29.393763 244.20312 28.862513 244.46875Q28.315638 244.71875 27.721888 244.71875ZM27.721888 243.07812Q28.456263 243.07812 28.784388 242.84375Q28.987513 242.70312 28.987513 242.40625Q28.987513 242.10938 28.784388 241.95312Q28.456263 241.71875 27.721888 241.71875Q27.003138 241.71875 26.659388 241.95312Q26.456263 242.10938 26.456263 242.40625Q26.456263 242.70312 26.675013 242.84375Q27.003138 243.07812 27.721888 243.07812ZM26.456263 235.07812Q25.034388 235.07812 24.112513 234.125Q23.190638 233.15625 23.190638 231.51562Q23.190638 229.64062 24.268763 228.6875Q25.143763 227.92188 26.425013 227.92188Q27.862513 227.92188 28.784388 228.875Q29.690638 229.82812 29.690638 231.51562Q29.690638 233.01562 28.925013 233.9375Q27.987513 235.07812 26.456263 235.07812ZM26.456263 232.6875Q27.284388 232.6875 27.690638 232.34375Q28.081263 232.0 28.081263 231.5Q28.081263 230.98438 27.690638 230.65625Q27.300013 230.3125 26.425013 230.3125Q25.612513 230.3125 25.221888 230.65625Q24.831263 230.98438 24.831263 231.48438Q24.831263 232.0 25.237513 232.34375Q25.628138 232.6875 26.456263 232.6875ZM23.331263 224.125L23.331263 222.98438L25.065638 222.98438L25.065638 224.125L29.550013 224.125L29.550013 226.51562L25.065638 226.51562L25.065638 227.40625L23.331263 227.40625L23.331263 226.51562L23.050013 226.51562Q22.659388 226.51562 22.206263 226.4375Q21.753138 226.34375 21.471888 226.125Q21.175013 225.90625 21.003138 225.5Q20.815638 225.07812 20.815638 224.29688Q20.815638 223.67188 20.956263 222.48438L22.393763 222.73438Q22.331263 223.17188 22.331263 223.4375Q22.331263 223.75 22.440638 223.89062Q22.550013 224.03125 22.784388 224.09375Q22.909388 224.125 23.331263 224.125ZM29.550013 217.57812L20.956263 217.57812L20.956263 213.15625Q20.956263 211.9375 21.175013 211.28125Q21.378138 210.625 21.956263 210.23438Q22.518763 209.82812 23.346888 209.82812Q24.065638 209.82812 24.581263 210.14062Q25.096888 210.4375 25.425013 210.96875Q25.628138 211.3125 25.753138 211.90625Q25.909388 211.4375 26.081263 211.21875Q26.175013 211.0625 26.534388 210.79688Q26.878138 210.51562 27.065638 210.42188L29.550013 209.14062L29.550013 212.14062L26.925013 213.54688Q26.409388 213.82812 26.268763 214.03125Q26.065638 214.32812 26.065638 214.6875L26.065638 214.92188L29.550013 214.92188L29.550013 217.57812ZM24.440638 214.92188L24.440638 213.79688Q24.440638 213.625 24.315638 213.09375Q24.268763 212.82812 24.050013 212.67188Q23.831263 212.5 23.550013 212.5Q23.143763 212.5 22.925013 212.76562Q22.690638 213.03125 22.690638 213.75L22.690638 214.92188L24.440638 214.92188ZM25.346888 206.60938L25.096888 208.89062Q24.503138 208.75 24.159388 208.51562Q23.815638 208.26562 23.565638 207.8125Q23.378138 207.48438 23.284388 206.90625Q23.190638 206.32812 23.190638 205.67188Q23.190638 204.59375 23.315638 203.95312Q23.425013 203.29688 23.800013 202.85938Q24.065638 202.5625 24.550013 202.39062Q25.034388 202.20312 25.471888 202.20312L28.221888 202.20312Q28.659388 202.20312 28.909388 202.15625Q29.159388 202.09375 29.550013 201.90625L29.550013 204.14062Q29.315638 204.28125 29.190638 204.32812Q29.050013 204.35938 28.784388 204.40625Q29.237513 204.875 29.425013 205.32812Q29.690638 205.96875 29.690638 206.79688Q29.690638 207.92188 29.175013 208.5Q28.659388 209.07812 27.909388 209.07812Q27.190638 209.07812 26.737513 208.65625Q26.284388 208.23438 26.050013 207.125Q25.784388 205.78125 25.675013 205.39062Q25.565638 204.98438 25.393763 204.53125Q24.956263 204.53125 24.784388 204.71875Q24.596888 204.90625 24.596888 205.35938Q24.596888 205.9375 24.784388 206.23438Q24.940638 206.46875 25.346888 206.60938ZM26.596888 204.53125Q26.768763 205.03125 26.909388 205.5625Q27.096888 206.28125 27.284388 206.48438Q27.487513 206.6875 27.721888 206.6875Q28.003138 206.6875 28.190638 206.48438Q28.362513 206.28125 28.362513 205.90625Q28.362513 205.51562 28.175013 205.17188Q27.971888 204.82812 27.706263 204.6875Q27.425013 204.53125 26.971888 204.53125L26.596888 204.53125ZM20.956263 197.90625L23.331263 197.90625L23.331263 196.59375L25.065638 196.59375L25.065638 197.90625L27.268763 197.90625Q27.675013 197.90625 27.800013 197.82812Q28.003138 197.70312 28.003138 197.42188Q28.003138 197.15625 27.846888 196.67188L29.503138 196.5Q29.690638 197.39062 29.690638 198.15625Q29.690638 199.04688 29.471888 199.46875Q29.237513 199.89062 28.768763 200.09375Q28.300013 200.29688 27.253138 200.29688L25.065638 200.29688L25.065638 201.17188L23.331263 201.17188L23.331263 200.29688L22.190638 200.29688L20.956263 197.90625ZM27.034388 188.875L27.034388 193.65625Q27.596888 193.59375 27.878138 193.34375Q28.284388 193.0 28.284388 192.4375Q28.284388 192.09375 28.112513 191.76562Q28.003138 191.57812 27.721888 191.35938L27.940638 189.0Q28.878138 189.54688 29.284388 190.3125Q29.690638 191.0625 29.690638 192.48438Q29.690638 193.73438 29.346888 194.4375Q28.987513 195.14062 28.237513 195.60938Q27.471888 196.07812 26.456263 196.07812Q24.987513 196.07812 24.096888 195.14062Q23.190638 194.20312 23.190638 192.5625Q23.190638 191.21875 23.596888 190.45312Q23.987513 189.67188 24.768763 189.28125Q25.534388 188.875 26.753138 188.875L27.034388 188.875ZM25.893763 191.29688Q25.190638 191.35938 24.893763 191.67188Q24.596888 191.96875 24.596888 192.46875Q24.596888 193.03125 25.050013 193.375Q25.331263 193.59375 25.893763 193.64062L25.893763 191.29688ZM20.956263 183.625L20.956263 180.96875L27.440638 180.96875L27.440638 176.82812L29.550013 176.82812L29.550013 183.625L20.956263 183.625ZM20.956263 175.6875L20.956263 173.3125L22.581263 173.3125L22.581263 175.6875L20.956263 175.6875ZM23.331263 175.6875L23.331263 173.3125L29.550013 173.3125L29.550013 175.6875L23.331263 175.6875ZM23.331263 171.76562L23.331263 169.53125L24.237513 169.53125Q23.659388 169.04688 23.425013 168.5625Q23.190638 168.07812 23.190638 167.39062Q23.190638 166.64062 23.456263 166.20312Q23.706263 165.76562 24.237513 165.5Q23.628138 164.9375 23.409388 164.48438Q23.190638 164.01562 23.190638 163.32812Q23.190638 162.32812 23.784388 161.76562Q24.378138 161.20312 25.643763 161.20312L29.550013 161.20312L29.550013 163.59375L26.003138 163.59375Q25.581263 163.59375 25.378138 163.75Q25.050013 164.0 25.050013 164.35938Q25.050013 164.78125 25.362513 165.04688Q25.659388 165.29688 26.331263 165.29688L29.550013 165.29688L29.550013 167.6875L26.128138 167.6875Q25.706263 167.6875 25.565638 167.73438Q25.331263 167.8125 25.190638 168.0Q25.050013 168.1875 25.050013 168.4375Q25.050013 168.84375 25.362513 169.10938Q25.659388 169.375 26.378138 169.375L29.550013 169.375L29.550013 171.76562L23.331263 171.76562ZM20.956263 159.6875L20.956263 157.3125L22.581263 157.3125L22.581263 159.6875L20.956263 159.6875ZM23.331263 159.6875L23.331263 157.3125L29.550013 157.3125L29.550013 159.6875L23.331263 159.6875ZM20.956263 152.90625L23.331263 152.90625L23.331263 151.59375L25.065638 151.59375L25.065638 152.90625L27.268763 152.90625Q27.675013 152.90625 27.800013 152.82812Q28.003138 152.70312 28.003138 152.42188Q28.003138 152.15625 27.846888 151.67188L29.503138 151.5Q29.690638 152.39062 29.690638 153.15625Q29.690638 154.04688 29.471888 154.46875Q29.237513 154.89062 28.768763 155.09375Q28.300013 155.29688 27.253138 155.29688L25.065638 155.29688L25.065638 156.17188L23.331263 156.17188L23.331263 155.29688L22.190638 155.29688L20.956263 152.90625ZM28.128138 141.32812L28.128138 144.35938L29.550013 144.78125L29.550013 147.48438L20.956263 144.26562L20.956263 141.35938L29.550013 138.14062L29.550013 140.90625L28.128138 141.32812ZM26.268763 141.89062L23.190638 142.84375L26.268763 143.78125L26.268763 141.89062ZM23.331263 138.48438L23.331263 136.0L27.268763 134.79688L23.331263 133.54688L23.331263 131.14062L29.550013 133.78125L29.550013 135.89062L23.331263 138.48438ZM25.346888 128.60938L25.096888 130.89062Q24.503138 130.75 24.159388 130.51562Q23.815638 130.26562 23.565638 129.8125Q23.378138 129.48438 23.284388 128.90625Q23.190638 128.32812 23.190638 127.671875Q23.190638 126.59375 23.315638 125.953125Q23.425013 125.296875 23.800013 124.859375Q24.065638 124.5625 24.550013 124.390625Q25.034388 124.203125 25.471888 124.203125L28.221888 124.203125Q28.659388 124.203125 28.909388 124.15625Q29.159388 124.09375 29.550013 123.90625L29.550013 126.140625Q29.315638 126.28125 29.190638 126.328125Q29.050013 126.359375 28.784388 126.40625Q29.237513 126.875 29.425013 127.328125Q29.690638 127.96875 29.690638 128.79688Q29.690638 129.92188 29.175013 130.5Q28.659388 131.07812 27.909388 131.07812Q27.190638 131.07812 26.737513 130.65625Q26.284388 130.23438 26.050013 129.125Q25.784388 127.78125 25.675013 127.390625Q25.565638 126.984375 25.393763 126.53125Q24.956263 126.53125 24.784388 126.71875Q24.596888 126.90625 24.596888 127.359375Q24.596888 127.9375 24.784388 128.23438Q24.940638 128.46875 25.346888 128.60938ZM26.596888 126.53125Q26.768763 127.03125 26.909388 127.5625Q27.096888 128.28125 27.284388 128.48438Q27.487513 128.6875 27.721888 128.6875Q28.003138 128.6875 28.190638 128.48438Q28.362513 128.28125 28.362513 127.90625Q28.362513 127.515625 28.175013 127.171875Q27.971888 126.828125 27.706263 126.6875Q27.425013 126.53125 26.971888 126.53125L26.596888 126.53125ZM20.956263 122.6875L20.956263 120.3125L22.581263 120.3125L22.581263 122.6875L20.956263 122.6875ZM23.331263 122.6875L23.331263 120.3125L29.550013 120.3125L29.550013 122.6875L23.331263 122.6875ZM20.956263 118.703125L20.956263 116.3125L29.550013 116.3125L29.550013 118.703125L20.956263 118.703125ZM25.346888 112.609375L25.096888 114.890625Q24.503138 114.75 24.159388 114.515625Q23.815638 114.265625 23.565638 113.8125Q23.378138 113.484375 23.284388 112.90625Q23.190638 112.328125 23.190638 111.671875Q23.190638 110.59375 23.315638 109.953125Q23.425013 109.296875 23.800013 108.859375Q24.065638 108.5625 24.550013 108.390625Q25.034388 108.203125 25.471888 108.203125L28.221888 108.203125Q28.659388 108.203125 28.909388 108.15625Q29.159388 108.09375 29.550013 107.90625L29.550013 110.140625Q29.315638 110.28125 29.190638 110.328125Q29.050013 110.359375 28.784388 110.40625Q29.237513 110.875 29.425013 111.328125Q29.690638 111.96875 29.690638 112.796875Q29.690638 113.921875 29.175013 114.5Q28.659388 115.078125 27.909388 115.078125Q27.190638 115.078125 26.737513 114.65625Q26.284388 114.234375 26.050013 113.125Q25.784388 111.78125 25.675013 111.390625Q25.565638 110.984375 25.393763 110.53125Q24.956263 110.53125 24.784388 110.71875Q24.596888 110.90625 24.596888 111.359375Q24.596888 111.9375 24.784388 112.234375Q24.940638 112.46875 25.346888 112.609375ZM26.596888 110.53125Q26.768763 111.03125 26.909388 111.5625Q27.096888 112.28125 27.284388 112.484375Q27.487513 112.6875 27.721888 112.6875Q28.003138 112.6875 28.190638 112.484375Q28.362513 112.28125 28.362513 111.90625Q28.362513 111.515625 28.175013 111.171875Q27.971888 110.828125 27.706263 110.6875Q27.425013 110.53125 26.971888 110.53125L26.596888 110.53125ZM20.956263 106.765625L20.956263 104.359375L23.940638 104.359375Q23.565638 104.0 23.378138 103.546875Q23.190638 103.09375 23.190638 102.546875Q23.190638 101.40625 24.003138 100.671875Q24.815638 99.921875 26.346888 99.921875Q27.362513 99.921875 28.143763 100.265625Q28.925013 100.59375 29.315638 101.203125Q29.690638 101.796875 29.690638 102.53125Q29.690638 103.15625 29.425013 103.671875Q29.206263 104.078125 28.628138 104.53125L29.550013 104.53125L29.550013 106.765625L20.956263 106.765625ZM26.425013 104.375Q27.221888 104.375 27.581263 104.078125Q27.940638 103.765625 27.940638 103.3125Q27.940638 102.875 27.596888 102.59375Q27.237513 102.296875 26.393763 102.296875Q25.659388 102.296875 25.315638 102.59375Q24.971888 102.875 24.971888 103.28125Q24.971888 103.765625 25.331263 104.078125Q25.690638 104.375 26.425013 104.375ZM20.956263 98.703125L20.956263 96.3125L29.550013 96.3125L29.550013 98.703125L20.956263 98.703125ZM27.034388 87.875L27.034388 92.65625Q27.596888 92.59375 27.878138 92.34375Q28.284388 92.0 28.284388 91.4375Q28.284388 91.09375 28.112513 90.765625Q28.003138 90.578125 27.721888 90.359375L27.940638 88.0Q28.878138 88.546875 29.284388 89.3125Q29.690638 90.0625 29.690638 91.484375Q29.690638 92.734375 29.346888 93.4375Q28.987513 94.140625 28.237513 94.609375Q27.471888 95.078125 26.456263 95.078125Q24.987513 95.078125 24.096888 94.140625Q23.190638 93.203125 23.190638 91.5625Q23.190638 90.21875 23.596888 89.453125Q23.987513 88.671875 24.768763 88.28125Q25.534388 87.875 26.753138 87.875L27.034388 87.875ZM25.893763 90.296875Q25.190638 90.359375 24.893763 90.671875Q24.596888 90.96875 24.596888 91.46875Q24.596888 92.03125 25.050013 92.375Q25.331263 92.59375 25.893763 92.640625L25.893763 90.296875Z" fill-rule="nonzero"/><path fill="#ffffff" d="M67.05 300.1219Q67.05 297.66876 67.925 296.7Q68.8 295.71564 70.6125 295.71564Q71.47188 295.71564 72.03438 295.9344Q72.59688 296.1375 72.94063 296.48126Q73.3 296.825 73.50313 297.2Q73.70625 297.575 73.81563 298.09064Q74.06563 299.04376 74.06563 300.09064Q74.06563 302.4344 73.26875 303.5125Q72.4875 304.59064 70.55 304.59064Q69.45625 304.59064 68.78438 304.2469Q68.12813 303.90314 67.70625 303.23126Q67.39375 302.7625 67.22188 301.95Q67.05 301.1219 67.05 300.1219ZM69.40938 300.1219Q69.40938 301.7625 69.69063 302.3719Q69.9875 302.96564 70.53438 302.96564Q70.90938 302.96564 71.175 302.71564Q71.44063 302.45 71.56563 301.90314Q71.69063 301.35626 71.69063 300.1844Q71.69063 298.48126 71.39375 297.8875Q71.1125 297.29376 70.53438 297.29376Q69.94063 297.29376 69.675 297.90314Q69.40938 298.4969 69.40938 300.1219ZM82.425 295.71564L83.65938 295.71564L78.70625 304.8875L77.47188 304.8875L82.425 295.71564ZM75.12813 297.96564Q75.12813 297.3719 75.39375 296.84064Q75.65938 296.29376 76.19063 296.0125Q76.72188 295.71564 77.45625 295.71564Q78.53438 295.71564 79.15938 296.34064Q79.78438 296.95 79.78438 297.96564Q79.78438 298.9969 79.15938 299.6219Q78.53438 300.23126 77.45625 300.23126Q76.72188 300.23126 76.19063 299.95Q75.65938 299.65314 75.39375 299.1219Q75.12813 298.575 75.12813 297.96564ZM76.78438 297.98126Q76.78438 298.7 77.01875 299.02814Q77.15938 299.2469 77.45625 299.2469Q77.75313 299.2469 77.89375 299.02814Q78.12813 298.7 78.12813 297.98126Q78.12813 297.2625 77.89375 296.91876Q77.75313 296.71564 77.45625 296.71564Q77.15938 296.71564 77.01875 296.91876Q76.78438 297.2469 76.78438 297.98126ZM81.33125 302.6219Q81.33125 302.0125 81.58125 301.48126Q81.84688 300.9344 82.37813 300.65314Q82.925 300.35626 83.64375 300.35626Q84.72188 300.35626 85.34688 300.98126Q85.97188 301.59064 85.97188 302.6219Q85.97188 303.6375 85.34688 304.2625Q84.72188 304.8719 83.64375 304.8719Q82.925 304.8719 82.37813 304.575Q81.84688 304.29376 81.58125 303.7625Q81.33125 303.21564 81.33125 302.6219ZM82.97188 302.6219Q82.97188 303.35626 83.20625 303.6844Q83.34688 303.8875 83.64375 303.8875Q83.94063 303.8875 84.09688 303.6844Q84.33125 303.35626 84.33125 302.6219Q84.33125 301.90314 84.09688 301.5594Q83.94063 301.35626 83.64375 301.35626Q83.34688 301.35626 83.20625 301.575Q82.97188 301.90314 82.97188 302.6219Z" fill-rule="nonzero"/><path fill="#ffffff" d="M66.03438 235.725L58.8625 235.725Q58.9875 234.6625 59.6125 233.725Q60.2375 232.7875 61.95625 231.52188Q63.003124 230.74063 63.3 230.33438Q63.596874 229.92813 63.596874 229.56876Q63.596874 229.17813 63.3 228.89688Q63.003124 228.61563 62.565624 228.61563Q62.1125 228.61563 61.815624 228.9125Q61.534374 229.19376 61.440624 229.92813L59.05 229.725Q59.190624 228.725 59.565624 228.1625Q59.940624 227.58438 60.6125 227.2875Q61.3 226.99063 62.503124 226.99063Q63.76875 226.99063 64.45625 227.2875Q65.15938 227.56876 65.56563 228.1625Q65.97188 228.75626 65.97188 229.49063Q65.97188 230.27188 65.50313 230.99063Q65.05 231.70938 63.83125 232.55313Q63.1125 233.05313 62.8625 233.25626Q62.628124 233.45938 62.3 233.77188L66.03438 233.77188L66.03438 235.725ZM68.00313 227.13126L73.675 227.13126L73.675 229.0375L69.83125 229.0375L69.62813 230.33438Q70.03438 230.14688 70.425 230.05313Q70.81563 229.95938 71.19063 229.95938Q72.4875 229.95938 73.28438 230.74063Q74.08125 231.50626 74.08125 232.69376Q74.08125 233.52188 73.65938 234.30313Q73.25313 235.06876 72.4875 235.475Q71.7375 235.86563 70.56563 235.86563Q69.70625 235.86563 69.09688 235.70938Q68.50313 235.55313 68.06563 235.24063Q67.64375 234.9125 67.37813 234.50626Q67.1125 234.1 66.94063 233.49063L69.3625 233.24063Q69.44063 233.81876 69.76875 234.11563Q70.09688 234.4125 70.53438 234.4125Q71.03438 234.4125 71.3625 234.0375Q71.69063 233.6625 71.69063 232.9125Q71.69063 232.14688 71.3625 231.7875Q71.03438 231.42813 70.4875 231.42813Q70.14375 231.42813 69.81563 231.6Q69.58125 231.725 69.28438 232.0375L67.25313 231.75626L68.00313 227.13126ZM82.425 226.99063L83.65938 226.99063L78.70625 236.1625L77.47188 236.1625L82.425 226.99063ZM75.12813 229.24063Q75.12813 228.64688 75.39375 228.11563Q75.65938 227.56876 76.19063 227.2875Q76.72188 226.99063 77.45625 226.99063Q78.53438 226.99063 79.15938 227.61563Q79.78438 228.225 79.78438 229.24063Q79.78438 230.27188 79.15938 230.89688Q78.53438 231.50626 77.45625 231.50626Q76.72188 231.50626 76.19063 231.225Q75.65938 230.92813 75.39375 230.39688Q75.12813 229.85 75.12813 229.24063ZM76.78438 229.25626Q76.78438 229.975 77.01875 230.30313Q77.15938 230.52188 77.45625 230.52188Q77.75313 230.52188 77.89375 230.30313Q78.12813 229.975 78.12813 229.25626Q78.12813 228.5375 77.89375 228.19376Q77.75313 227.99063 77.45625 227.99063Q77.15938 227.99063 77.01875 228.19376Q76.78438 228.52188 76.78438 229.25626ZM81.33125 233.89688Q81.33125 233.2875 81.58125 232.75626Q81.84688 232.20938 82.37813 231.92813Q82.925 231.63126 83.64375 231.63126Q84.72188 231.63126 85.34688 232.25626Q85.97188 232.86563 85.97188 233.89688Q85.97188 234.9125 85.34688 235.5375Q84.72188 236.14688 83.64375 236.14688Q82.925 236.14688 82.37813 235.85Q81.84688 235.56876 81.58125 235.0375Q81.33125 234.49063 81.33125 233.89688ZM82.97188 233.89688Q82.97188 234.63126 83.20625 234.95938Q83.34688 235.1625 83.64375 235.1625Q83.94063 235.1625 84.09688 234.95938Q84.33125 234.63126 84.33125 233.89688Q84.33125 233.17813 84.09688 232.83438Q83.94063 232.63126 83.64375 232.63126Q83.34688 232.63126 83.20625 232.85Q82.97188 233.17813 82.97188 233.89688Z" fill-rule="nonzero"/><path fill="#ffffff" d="M60.003124 158.40625L65.675 158.40625L65.675 160.3125L61.83125 160.3125L61.628124 161.60938Q62.034374 161.42188 62.425 161.32812Q62.815624 161.23438 63.190624 161.23438Q64.4875 161.23438 65.28438 162.01562Q66.08125 162.78125 66.08125 163.96875Q66.08125 164.79688 65.65938 165.57812Q65.25313 166.34375 64.4875 166.75Q63.7375 167.14062 62.565624 167.14062Q61.70625 167.14062 61.096874 166.98438Q60.503124 166.82812 60.065624 166.51562Q59.64375 166.1875 59.378124 165.78125Q59.1125 165.375 58.940624 164.76562L61.3625 164.51562Q61.440624 165.09375 61.76875 165.39062Q62.096874 165.6875 62.534374 165.6875Q63.034374 165.6875 63.3625 165.3125Q63.690624 164.9375 63.690624 164.1875Q63.690624 163.42188 63.3625 163.0625Q63.034374 162.70312 62.4875 162.70312Q62.14375 162.70312 61.815624 162.875Q61.58125 163.0 61.284374 163.3125L59.253124 163.03125L60.003124 158.40625ZM67.05 162.67188Q67.05 160.21875 67.925 159.25Q68.8 158.26562 70.6125 158.26562Q71.47188 158.26562 72.03438 158.48438Q72.59688 158.6875 72.94063 159.03125Q73.3 159.375 73.50313 159.75Q73.70625 160.125 73.81563 160.64062Q74.06563 161.59375 74.06563 162.64062Q74.06563 164.98438 73.26875 166.0625Q72.4875 167.14062 70.55 167.14062Q69.45625 167.14062 68.78438 166.79688Q68.12813 166.45312 67.70625 165.78125Q67.39375 165.3125 67.22188 164.5Q67.05 163.67188 67.05 162.67188ZM69.40938 162.67188Q69.40938 164.3125 69.69063 164.92188Q69.9875 165.51562 70.53438 165.51562Q70.90938 165.51562 71.175 165.26562Q71.44063 165.0 71.56563 164.45312Q71.69063 163.90625 71.69063 162.73438Q71.69063 161.03125 71.39375 160.4375Q71.1125 159.84375 70.53438 159.84375Q69.94063 159.84375 69.675 160.45312Q69.40938 161.04688 69.40938 162.67188ZM82.425 158.26562L83.65938 158.26562L78.70625 167.4375L77.47188 167.4375L82.425 158.26562ZM75.12813 160.51562Q75.12813 159.92188 75.39375 159.39062Q75.65938 158.84375 76.19063 158.5625Q76.72188 158.26562 77.45625 158.26562Q78.53438 158.26562 79.15938 158.89062Q79.78438 159.5 79.78438 160.51562Q79.78438 161.54688 79.15938 162.17188Q78.53438 162.78125 77.45625 162.78125Q76.72188 162.78125 76.19063 162.5Q75.65938 162.20312 75.39375 161.67188Q75.12813 161.125 75.12813 160.51562ZM76.78438 160.53125Q76.78438 161.25 77.01875 161.57812Q77.15938 161.79688 77.45625 161.79688Q77.75313 161.79688 77.89375 161.57812Q78.12813 161.25 78.12813 160.53125Q78.12813 159.8125 77.89375 159.46875Q77.75313 159.26562 77.45625 159.26562Q77.15938 159.26562 77.01875 159.46875Q76.78438 159.79688 76.78438 160.53125ZM81.33125 165.17188Q81.33125 164.5625 81.58125 164.03125Q81.84688 163.48438 82.37813 163.20312Q82.925 162.90625 83.64375 162.90625Q84.72188 162.90625 85.34688 163.53125Q85.97188 164.14062 85.97188 165.17188Q85.97188 166.1875 85.34688 166.8125Q84.72188 167.42188 83.64375 167.42188Q82.925 167.42188 82.37813 167.125Q81.84688 166.84375 81.58125 166.3125Q81.33125 165.76562 81.33125 165.17188ZM82.97188 165.17188Q82.97188 165.90625 83.20625 166.23438Q83.34688 166.4375 83.64375 166.4375Q83.94063 166.4375 84.09688 166.23438Q84.33125 165.90625 84.33125 165.17188Q84.33125 164.45312 84.09688 164.10938Q83.94063 163.90625 83.64375 163.90625Q83.34688 163.90625 83.20625 164.125Q82.97188 164.45312 82.97188 165.17188Z" fill-rule="nonzero"/><path fill="#ffffff" d="M59.08125 89.68125L66.05 89.68125L66.05 91.29063Q65.14375 92.11875 64.53438 93.07188Q63.8 94.22813 63.3625 95.65Q63.034374 96.75938 62.909374 98.275L60.534374 98.275Q60.815624 96.16563 61.409374 94.74375Q62.01875 93.32188 63.33125 91.69688L59.08125 91.69688L59.08125 89.68125ZM68.00313 89.68125L73.675 89.68125L73.675 91.5875L69.83125 91.5875L69.62813 92.88438Q70.03438 92.69688 70.425 92.60313Q70.81563 92.50938 71.19063 92.50938Q72.4875 92.50938 73.28438 93.29063Q74.08125 94.05625 74.08125 95.24375Q74.08125 96.07188 73.65938 96.85313Q73.25313 97.61875 72.4875 98.025Q71.7375 98.41563 70.56563 98.41563Q69.70625 98.41563 69.09688 98.25938Q68.50313 98.10313 68.06563 97.79063Q67.64375 97.4625 67.37813 97.05625Q67.1125 96.65 66.94063 96.04063L69.3625 95.79063Q69.44063 96.36875 69.76875 96.66563Q70.09688 96.9625 70.53438 96.9625Q71.03438 96.9625 71.3625 96.5875Q71.69063 96.2125 71.69063 95.4625Q71.69063 94.69688 71.3625 94.3375Q71.03438 93.97813 70.4875 93.97813Q70.14375 93.97813 69.81563 94.15Q69.58125 94.275 69.28438 94.5875L67.25313 94.30625L68.00313 89.68125ZM82.425 89.54063L83.65938 89.54063L78.70625 98.7125L77.47188 98.7125L82.425 89.54063ZM75.12813 91.79063Q75.12813 91.19688 75.39375 90.66563Q75.65938 90.11875 76.19063 89.8375Q76.72188 89.54063 77.45625 89.54063Q78.53438 89.54063 79.15938 90.16563Q79.78438 90.775 79.78438 91.79063Q79.78438 92.82188 79.15938 93.44688Q78.53438 94.05625 77.45625 94.05625Q76.72188 94.05625 76.19063 93.775Q75.65938 93.47813 75.39375 92.94688Q75.12813 92.4 75.12813 91.79063ZM76.78438 91.80625Q76.78438 92.525 77.01875 92.85313Q77.15938 93.07188 77.45625 93.07188Q77.75313 93.07188 77.89375 92.85313Q78.12813 92.525 78.12813 91.80625Q78.12813 91.0875 77.89375 90.74375Q77.75313 90.54063 77.45625 90.54063Q77.15938 90.54063 77.01875 90.74375Q76.78438 91.07188 76.78438 91.80625ZM81.33125 96.44688Q81.33125 95.8375 81.58125 95.30625Q81.84688 94.75938 82.37813 94.47813Q82.925 94.18125 83.64375 94.18125Q84.72188 94.18125 85.34688 94.80625Q85.97188 95.41563 85.97188 96.44688Q85.97188 97.4625 85.34688 98.0875Q84.72188 98.69688 83.64375 98.69688Q82.925 98.69688 82.37813 98.4Q81.84688 98.11875 81.58125 97.5875Q81.33125 97.04063 81.33125 96.44688ZM82.97188 96.44688Q82.97188 97.18125 83.20625 97.50938Q83.34688 97.7125 83.64375 97.7125Q83.94063 97.7125 84.09688 97.50938Q84.33125 97.18125 84.33125 96.44688Q84.33125 95.72813 84.09688 95.38438Q83.94063 95.18125 83.64375 95.18125Q83.34688 95.18125 83.20625 95.4Q82.97188 95.72813 82.97188 96.44688Z" fill-rule="nonzero"/><path fill="#ffffff" d="M56.45625 20.815624L56.45625 29.55L54.034374 29.55L54.034374 23.83125Q53.45625 24.26875 52.909374 24.55Q52.3625 24.815624 51.534374 25.065624L51.534374 23.1125Q52.753124 22.721874 53.425 22.175Q54.096874 21.628124 54.471874 20.815624L56.45625 20.815624ZM59.05 25.221874Q59.05 22.76875 59.925 21.8Q60.8 20.815624 62.6125 20.815624Q63.471874 20.815624 64.03438 21.034374Q64.59688 21.2375 64.94063 21.58125Q65.3 21.925 65.50313 22.3Q65.70625 22.675 65.81563 23.190624Q66.06563 24.14375 66.06563 25.190624Q66.06563 27.534374 65.26875 28.6125Q64.4875 29.690624 62.55 29.690624Q61.45625 29.690624 60.784374 29.346874Q60.128124 29.003124 59.70625 28.33125Q59.39375 27.8625 59.221874 27.05Q59.05 26.221874 59.05 25.221874ZM61.409374 25.221874Q61.409374 26.8625 61.690624 27.471874Q61.9875 28.065624 62.534374 28.065624Q62.909374 28.065624 63.175 27.815624Q63.440624 27.55 63.565624 27.003124Q63.690624 26.45625 63.690624 25.284374Q63.690624 23.58125 63.39375 22.9875Q63.1125 22.39375 62.534374 22.39375Q61.940624 22.39375 61.675 23.003124Q61.409374 23.596874 61.409374 25.221874ZM67.05 25.221874Q67.05 22.76875 67.925 21.8Q68.8 20.815624 70.6125 20.815624Q71.47188 20.815624 72.03438 21.034374Q72.59688 21.2375 72.94063 21.58125Q73.3 21.925 73.50313 22.3Q73.70625 22.675 73.81563 23.190624Q74.06563 24.14375 74.06563 25.190624Q74.06563 27.534374 73.26875 28.6125Q72.4875 29.690624 70.55 29.690624Q69.45625 29.690624 68.78438 29.346874Q68.12813 29.003124 67.70625 28.33125Q67.39375 27.8625 67.22188 27.05Q67.05 26.221874 67.05 25.221874ZM69.40938 25.221874Q69.40938 26.8625 69.69063 27.471874Q69.9875 28.065624 70.53438 28.065624Q70.90938 28.065624 71.175 27.815624Q71.44063 27.55 71.56563 27.003124Q71.69063 26.45625 71.69063 25.284374Q71.69063 23.58125 71.39375 22.9875Q71.1125 22.39375 70.53438 22.39375Q69.94063 22.39375 69.675 23.003124Q69.40938 23.596874 69.40938 25.221874ZM82.425 20.815624L83.65938 20.815624L78.70625 29.9875L77.47188 29.9875L82.425 20.815624ZM75.12813 23.065624Q75.12813 22.471874 75.39375 21.940624Q75.65938 21.39375 76.19063 21.1125Q76.72188 20.815624 77.45625 20.815624Q78.53438 20.815624 79.15938 21.440624Q79.78438 22.05 79.78438 23.065624Q79.78438 24.096874 79.15938 24.721874Q78.53438 25.33125 77.45625 25.33125Q76.72188 25.33125 76.19063 25.05Q75.65938 24.753124 75.39375 24.221874Q75.12813 23.675 75.12813 23.065624ZM76.78438 23.08125Q76.78438 23.8 77.01875 24.128124Q77.15938 24.346874 77.45625 24.346874Q77.75313 24.346874 77.89375 24.128124Q78.12813 23.8 78.12813 23.08125Q78.12813 22.3625 77.89375 22.01875Q77.75313 21.815624 77.45625 21.815624Q77.15938 21.815624 77.01875 22.01875Q76.78438 22.346874 76.78438 23.08125ZM81.33125 27.721874Q81.33125 27.1125 81.58125 26.58125Q81.84688 26.034374 82.37813 25.753124Q82.925 25.45625 83.64375 25.45625Q84.72188 25.45625 85.34688 26.08125Q85.97188 26.690624 85.97188 27.721874Q85.97188 28.7375 85.34688 29.3625Q84.72188 29.971874 83.64375 29.971874Q82.925 29.971874 82.37813 29.675Q81.84688 29.39375 81.58125 28.8625Q81.33125 28.315624 81.33125 27.721874ZM82.97188 27.721874Q82.97188 28.45625 83.20625 28.784374Q83.34688 28.9875 83.64375 28.9875Q83.94063 28.9875 84.09688 28.784374Q84.33125 28.45625 84.33125 27.721874Q84.33125 27.003124 84.09688 26.659374Q83.94063 26.45625 83.64375 26.45625Q83.34688 26.45625 83.20625 26.675Q82.97188 27.003124 82.97188 27.721874Z" fill-rule="nonzero"/><path fill="#ffffff" d="M116.21111 313.1219Q116.21111 310.66876 117.08611 309.7Q117.96111 308.71564 119.77361 308.71564Q120.63299 308.71564 121.19549 308.9344Q121.75799 309.1375 122.10174 309.48126Q122.46111 309.825 122.66424 310.2Q122.86736 310.575 122.97674 311.09064Q123.22674 312.04376 123.22674 313.09064Q123.22674 315.4344 122.42986 316.5125Q121.64861 317.59064 119.71111 317.59064Q118.61736 317.59064 117.94549 317.2469Q117.28924 316.90314 116.86736 316.23126Q116.55486 315.7625 116.38299 314.95Q116.21111 314.1219 116.21111 313.1219ZM118.57049 313.1219Q118.57049 314.7625 118.85174 315.3719Q119.14861 315.96564 119.69549 315.96564Q120.07049 315.96564 120.33611 315.71564Q120.60174 315.45 120.72674 314.90314Q120.85174 314.35626 120.85174 313.1844Q120.85174 311.48126 120.55486 310.8875Q120.27361 310.29376 119.69549 310.29376Q119.10174 310.29376 118.83611 310.90314Q118.57049 311.4969 118.57049 313.1219Z" fill-rule="nonzero"/><path fill="#ffffff" d="M177.43959 310.79376L175.06459 311.09064Q174.97084 310.59064 174.75209 310.3875Q174.53334 310.1844 174.20522 310.1844Q173.62709 310.1844 173.29897 310.7625Q173.06459 311.1844 172.95522 312.575Q173.39272 312.1375 173.83022 311.9344Q174.28334 311.71564 174.87709 311.71564Q176.03334 311.71564 176.81459 312.54376Q177.61147 313.35626 177.61147 314.6219Q177.61147 315.46564 177.20522 316.16876Q176.81459 316.8719 176.09584 317.23126Q175.39272 317.59064 174.31459 317.59064Q173.03334 317.59064 172.25209 317.15314Q171.47084 316.71564 171.00209 315.7625Q170.53334 314.79376 170.53334 313.2Q170.53334 310.8719 171.51772 309.79376Q172.50209 308.71564 174.23647 308.71564Q175.25209 308.71564 175.84584 308.95Q176.43959 309.1844 176.83022 309.65314Q177.23647 310.10626 177.43959 310.79376ZM173.03334 314.6219Q173.03334 315.3094 173.37709 315.71564Q173.73647 316.10626 174.25209 316.10626Q174.72084 316.10626 175.03334 315.7469Q175.36147 315.3875 175.36147 314.6844Q175.36147 313.95 175.03334 313.575Q174.70522 313.2 174.20522 313.2Q173.72084 313.2 173.37709 313.575Q173.03334 313.9344 173.03334 314.6219Z" fill-rule="nonzero"/><path fill="#ffffff" d="M226.26181 308.71564L226.26181 317.45L223.83994 317.45L223.83994 311.73126Q223.26181 312.16876 222.71494 312.45Q222.16806 312.71564 221.33994 312.96564L221.33994 311.0125Q222.55869 310.6219 223.23056 310.075Q223.90244 309.52814 224.27744 308.71564L226.26181 308.71564ZM235.83994 317.45L228.66806 317.45Q228.79306 316.3875 229.41806 315.45Q230.04306 314.5125 231.76181 313.2469Q232.80869 312.46564 233.10556 312.0594Q233.40244 311.65314 233.40244 311.29376Q233.40244 310.90314 233.10556 310.6219Q232.80869 310.34064 232.37119 310.34064Q231.91806 310.34064 231.62119 310.6375Q231.33994 310.91876 231.24619 311.65314L228.85556 311.45Q228.99619 310.45 229.37119 309.8875Q229.74619 309.3094 230.41806 309.0125Q231.10556 308.71564 232.30869 308.71564Q233.57431 308.71564 234.26181 309.0125Q234.96494 309.29376 235.37119 309.8875Q235.77744 310.48126 235.77744 311.21564Q235.77744 311.9969 235.30869 312.71564Q234.85556 313.4344 233.63681 314.27814Q232.91806 314.77814 232.66806 314.98126Q232.43369 315.1844 232.10556 315.4969L235.83994 315.4969L235.83994 317.45Z" fill-rule="nonzero"/><path fill="#ffffff" d="M280.584 308.71564L280.584 317.45L278.16214 317.45L278.16214 311.73126Q277.584 312.16876 277.03714 312.45Q276.49026 312.71564 275.66214 312.96564L275.66214 311.0125Q276.8809 310.6219 277.55276 310.075Q278.22464 309.52814 278.59964 308.71564L280.584 308.71564ZM284.59964 312.825Q284.03714 312.52814 283.78714 312.16876Q283.42776 311.65314 283.42776 310.9969Q283.42776 309.91876 284.4434 309.2469Q285.24026 308.71564 286.53714 308.71564Q288.2559 308.71564 289.084 309.3719Q289.91214 310.02814 289.91214 311.02814Q289.91214 311.60626 289.584 312.10626Q289.334 312.48126 288.80276 312.825Q289.5059 313.16876 289.84964 313.71564Q290.1934 314.2625 290.1934 314.9344Q290.1934 315.575 289.8965 316.1375Q289.59964 316.7 289.16214 317.0125Q288.74026 317.3094 288.09964 317.45Q287.459 317.59064 286.72464 317.59064Q285.36526 317.59064 284.6465 317.27814Q283.92776 316.95 283.55276 316.325Q283.17776 315.7 283.17776 314.91876Q283.17776 314.16876 283.5215 313.65314Q283.8809 313.1219 284.59964 312.825ZM285.67776 311.1375Q285.67776 311.59064 285.959 311.8719Q286.24026 312.1375 286.6934 312.1375Q287.11526 312.1375 287.36526 311.8719Q287.6309 311.59064 287.6309 311.16876Q287.6309 310.71564 287.34964 310.45Q287.084 310.16876 286.66214 310.16876Q286.22464 310.16876 285.9434 310.45Q285.67776 310.71564 285.67776 311.1375ZM285.55276 314.84064Q285.55276 315.40314 285.8965 315.77814Q286.24026 316.1375 286.6934 316.1375Q287.11526 316.1375 287.4434 315.77814Q287.78714 315.40314 287.78714 314.84064Q287.78714 314.2625 287.4434 313.90314Q287.11526 313.54376 286.66214 313.54376Q286.209 313.54376 285.8809 313.90314Q285.55276 314.2469 285.55276 314.84064Z" fill-rule="nonzero"/><path fill="#ffffff" d="M336.48438 317.45L329.3125 317.45Q329.4375 316.3875 330.0625 315.45Q330.6875 314.5125 332.40625 313.2469Q333.45312 312.46564 333.75 312.0594Q334.04688 311.65314 334.04688 311.29376Q334.04688 310.90314 333.75 310.6219Q333.45312 310.34064 333.01562 310.34064Q332.5625 310.34064 332.26562 310.6375Q331.98438 310.91876 331.89062 311.65314L329.5 311.45Q329.64062 310.45 330.01562 309.8875Q330.39062 309.3094 331.0625 309.0125Q331.75 308.71564 332.95312 308.71564Q334.21875 308.71564 334.90625 309.0125Q335.60938 309.29376 336.01562 309.8875Q336.42188 310.48126 336.42188 311.21564Q336.42188 311.9969 335.95312 312.71564Q335.5 313.4344 334.28125 314.27814Q333.5625 314.77814 333.3125 314.98126Q333.07812 315.1844 332.75 315.4969L336.48438 315.4969L336.48438 317.45ZM341.59375 315.84064L337.25 315.84064L337.25 313.8875L341.59375 308.71564L343.67188 308.71564L343.67188 313.9969L344.75 313.9969L344.75 315.84064L343.67188 315.84064L343.67188 317.45L341.59375 317.45L341.59375 315.84064ZM341.59375 313.9969L341.59375 311.29376L339.29688 313.9969L341.59375 313.9969Z" fill-rule="nonzero"/><path fill="#ffffff" d="M386.13474 311.34064L383.8691 310.9344Q384.15036 309.85626 384.94724 309.29376Q385.75974 308.71564 387.21286 308.71564Q388.90036 308.71564 389.65036 309.34064Q390.40036 309.96564 390.40036 310.91876Q390.40036 311.46564 390.08786 311.91876Q389.791 312.3719 389.1816 312.71564Q389.6816 312.84064 389.9316 312.9969Q390.3691 313.2625 390.6035 313.7Q390.83786 314.1219 390.83786 314.73126Q390.83786 315.48126 390.44724 316.16876Q390.0566 316.85626 389.3066 317.23126Q388.57224 317.59064 387.38474 317.59064Q386.21286 317.59064 385.52536 317.325Q384.8535 317.04376 384.416 316.5125Q383.9785 315.98126 383.7441 315.1844L386.13474 314.8719Q386.27536 315.59064 386.57224 315.8719Q386.8691 316.1375 387.32224 316.1375Q387.8066 316.1375 388.1191 315.79376Q388.4316 315.4344 388.4316 314.85626Q388.4316 314.2625 388.1191 313.9344Q387.82224 313.60626 387.291 313.60626Q387.00974 313.60626 386.52536 313.7469L386.65036 312.02814Q386.83786 312.0594 386.96286 312.0594Q387.4316 312.0594 387.7441 311.7625Q388.0566 311.46564 388.0566 311.0594Q388.0566 310.66876 387.82224 310.4344Q387.58786 310.2 387.166 310.2Q386.7441 310.2 386.4785 310.45Q386.2285 310.7 386.13474 311.34064ZM391.82224 313.1219Q391.82224 310.66876 392.69724 309.7Q393.57224 308.71564 395.38474 308.71564Q396.2441 308.71564 396.8066 308.9344Q397.3691 309.1375 397.71286 309.48126Q398.07224 309.825 398.27536 310.2Q398.4785 310.575 398.58786 311.09064Q398.83786 312.04376 398.83786 313.09064Q398.83786 315.4344 398.041 316.5125Q397.25974 317.59064 395.32224 317.59064Q394.2285 317.59064 393.5566 317.2469Q392.90036 316.90314 392.4785 316.23126Q392.166 315.7625 391.9941 314.95Q391.82224 314.1219 391.82224 313.1219ZM394.1816 313.1219Q394.1816 314.7625 394.46286 315.3719Q394.75974 315.96564 395.3066 315.96564Q395.6816 315.96564 395.94724 315.71564Q396.21286 315.45 396.33786 314.90314Q396.46286 314.35626 396.46286 313.1844Q396.46286 311.48126 396.166 310.8875Q395.88474 310.29376 395.3066 310.29376Q394.71286 310.29376 394.44724 310.90314Q394.1816 311.4969 394.1816 313.1219Z" fill-rule="nonzero"/><path fill="#ffffff" d="M440.45694 311.34064L438.1913 310.9344Q438.47256 309.85626 439.26944 309.29376Q440.08194 308.71564 441.53506 308.71564Q443.22256 308.71564 443.97256 309.34064Q444.72256 309.96564 444.72256 310.91876Q444.72256 311.46564 444.41006 311.91876Q444.1132 312.3719 443.5038 312.71564Q444.0038 312.84064 444.2538 312.9969Q444.6913 313.2625 444.9257 313.7Q445.16006 314.1219 445.16006 314.73126Q445.16006 315.48126 444.76944 316.16876Q444.3788 316.85626 443.6288 317.23126Q442.89444 317.59064 441.70694 317.59064Q440.53506 317.59064 439.84756 317.325Q439.1757 317.04376 438.7382 316.5125Q438.3007 315.98126 438.0663 315.1844L440.45694 314.8719Q440.59756 315.59064 440.89444 315.8719Q441.1913 316.1375 441.64444 316.1375Q442.1288 316.1375 442.4413 315.79376Q442.7538 315.4344 442.7538 314.85626Q442.7538 314.2625 442.4413 313.9344Q442.14444 313.60626 441.6132 313.60626Q441.33194 313.60626 440.84756 313.7469L440.97256 312.02814Q441.16006 312.0594 441.28506 312.0594Q441.7538 312.0594 442.0663 311.7625Q442.3788 311.46564 442.3788 311.0594Q442.3788 310.66876 442.14444 310.4344Q441.91006 310.2 441.4882 310.2Q441.0663 310.2 440.8007 310.45Q440.5507 310.7 440.45694 311.34064ZM453.0507 310.79376L450.6757 311.09064Q450.58194 310.59064 450.3632 310.3875Q450.14444 310.1844 449.8163 310.1844Q449.2382 310.1844 448.91006 310.7625Q448.6757 311.1844 448.5663 312.575Q449.0038 312.1375 449.4413 311.9344Q449.89444 311.71564 450.4882 311.71564Q451.64444 311.71564 452.4257 312.54376Q453.22256 313.35626 453.22256 314.6219Q453.22256 315.46564 452.8163 316.16876Q452.4257 316.8719 451.70694 317.23126Q451.0038 317.59064 449.9257 317.59064Q448.64444 317.59064 447.8632 317.15314Q447.08194 316.71564 446.6132 315.7625Q446.14444 314.79376 446.14444 313.2Q446.14444 310.8719 447.1288 309.79376Q448.1132 308.71564 449.84756 308.71564Q450.8632 308.71564 451.45694 308.95Q452.0507 309.1844 452.4413 309.65314Q452.84756 310.10626 453.0507 310.79376ZM448.64444 314.6219Q448.64444 315.3094 448.9882 315.71564Q449.34756 316.10626 449.8632 316.10626Q450.33194 316.10626 450.64444 315.7469Q450.97256 315.3875 450.97256 314.6844Q450.97256 313.95 450.64444 313.575Q450.3163 313.2 449.8163 313.2Q449.33194 313.2 448.9882 313.575Q448.64444 313.9344 448.64444 314.6219Z" fill-rule="nonzero"/><path fill="#ffffff" d="M496.56042 315.84064L492.21667 315.84064L492.21667 313.8875L496.56042 308.71564L498.63855 308.71564L498.63855 313.9969L499.71667 313.9969L499.71667 315.84064L498.63855 315.84064L498.63855 317.45L496.56042 317.45L496.56042 315.84064ZM496.56042 313.9969L496.56042 311.29376L494.26355 313.9969L496.56042 313.9969ZM507.45105 317.45L500.27917 317.45Q500.40417 316.3875 501.02917 315.45Q501.65417 314.5125 503.37292 313.2469Q504.4198 312.46564 504.71667 312.0594Q505.01355 311.65314 505.01355 311.29376Q505.01355 310.90314 504.71667 310.6219Q504.4198 310.34064 503.9823 310.34064Q503.52917 310.34064 503.2323 310.6375Q502.95105 310.91876 502.8573 311.65314L500.46667 311.45Q500.6073 310.45 500.9823 309.8875Q501.3573 309.3094 502.02917 309.0125Q502.71667 308.71564 503.9198 308.71564Q505.18542 308.71564 505.87292 309.0125Q506.57605 309.29376 506.9823 309.8875Q507.38855 310.48126 507.38855 311.21564Q507.38855 311.9969 506.9198 312.71564Q506.46667 313.4344 505.24792 314.27814Q504.52917 314.77814 504.27917 314.98126Q504.0448 315.1844 503.71667 315.4969L507.45105 315.4969L507.45105 317.45Z" fill-rule="nonzero"/><path fill="#ffffff" d="M550.8826 315.84064L546.5389 315.84064L546.5389 313.8875L550.8826 308.71564L552.96075 308.71564L552.96075 313.9969L554.0389 313.9969L554.0389 315.84064L552.96075 315.84064L552.96075 317.45L550.8826 317.45L550.8826 315.84064ZM550.8826 313.9969L550.8826 311.29376L548.58575 313.9969L550.8826 313.9969ZM556.21075 312.825Q555.64825 312.52814 555.39825 312.16876Q555.0389 311.65314 555.0389 310.9969Q555.0389 309.91876 556.0545 309.2469Q556.8514 308.71564 558.14825 308.71564Q559.867 308.71564 560.6951 309.3719Q561.52325 310.02814 561.52325 311.02814Q561.52325 311.60626 561.1951 312.10626Q560.9451 312.48126 560.4139 312.825Q561.117 313.16876 561.46075 313.71564Q561.8045 314.2625 561.8045 314.9344Q561.8045 315.575 561.5076 316.1375Q561.21075 316.7 560.77325 317.0125Q560.3514 317.3094 559.71075 317.45Q559.0701 317.59064 558.33575 317.59064Q556.9764 317.59064 556.2576 317.27814Q555.5389 316.95 555.1639 316.325Q554.7889 315.7 554.7889 314.91876Q554.7889 314.16876 555.1326 313.65314Q555.492 313.1219 556.21075 312.825ZM557.2889 311.1375Q557.2889 311.59064 557.5701 311.8719Q557.8514 312.1375 558.3045 312.1375Q558.7264 312.1375 558.9764 311.8719Q559.242 311.59064 559.242 311.16876Q559.242 310.71564 558.96075 310.45Q558.6951 310.16876 558.27325 310.16876Q557.83575 310.16876 557.5545 310.45Q557.2889 310.71564 557.2889 311.1375ZM557.1639 314.84064Q557.1639 315.40314 557.5076 315.77814Q557.8514 316.1375 558.3045 316.1375Q558.7264 316.1375 559.0545 315.77814Q559.39825 315.40314 559.39825 314.84064Q559.39825 314.2625 559.0545 313.90314Q558.7264 313.54376 558.27325 313.54376Q557.8201 313.54376 557.492 313.90314Q557.1639 314.2469 557.1639 314.84064Z" fill-rule="nonzero"/></svg>